<svg width="1630" height="660" xmlns="http://www.w3.org/2000/svg" xmlns:xlink="http://www.w3.org/1999/xlink" xml:space="preserve" overflow="hidden"><defs><linearGradient x1="1002.52" y1="-230.463" x2="580.481" y2="847.463" gradientUnits="userSpaceOnUse" spreadMethod="reflect" id="stroke0"><stop offset="0" stop-color="#E3924B"/><stop offset="0.08" stop-color="#E3924B"/><stop offset="0.46" stop-color="#F0C099" stop-opacity="0"/><stop offset="0.62" stop-color="#FBE5D6"/><stop offset="1" stop-color="#E3924B"/></linearGradient><linearGradient x1="1673" y1="1763.04" x2="1673" y2="2058.96" gradientUnits="userSpaceOnUse" spreadMethod="reflect" id="stroke1"><stop offset="0" stop-color="#FCFDFE"/><stop offset="0.7" stop-color="#F6F8FC" stop-opacity="0"/><stop offset="1" stop-color="#FFFFFF"/></linearGradient><linearGradient x1="2483.05" y1="1329.77" x2="2042.95" y2="2434.23" gradientUnits="userSpaceOnUse" spreadMethod="reflect" id="stroke2"><stop offset="0" stop-color="#521065"/><stop offset="0.07" stop-color="#521065"/><stop offset="0.46" stop-color="#F0C099" stop-opacity="0"/><stop offset="0.62" stop-color="#FBE5D6"/><stop offset="1" stop-color="#521065"/></linearGradient></defs><g transform="translate(-1436 -1562)"><path d="M0 0 1480.16 0 1583 102.836 1583 617 0 617Z" stroke="url(#stroke0)" stroke-width="4.58333" stroke-miterlimit="8" fill="#060011" fill-rule="evenodd" fill-opacity="0.858824" transform="matrix(1 0 0 -1 1438.5 2219.5)"/><path d="M1549.5 1774.5 1742.46 1774.5 1796.5 1828.54 1796.5 2047.5 1796.5 2047.5 1603.54 2047.5 1549.5 1993.46 1549.5 1774.5Z" stroke="url(#stroke1)" stroke-width="22.9167" stroke-miterlimit="8" fill="none" fill-rule="evenodd"/><path d="M1471.5 1573.5 2951.66 1573.5 3054.5 1676.34 3054.5 2190.5 1471.5 2190.5Z" stroke="url(#stroke2)" stroke-width="22.9167" stroke-miterlimit="8" fill="none" fill-rule="evenodd"/><text fill="#FFFFFF" font-family="1,1_MSFontService,sans-serif" font-weight="700" font-size="73" transform="matrix(1 0 0 1 1859.11 1852)">A la scénographie </text><text fill="#FFFFFF" font-family="1,1_MSFontService,sans-serif" font-weight="400" font-size="73" transform="matrix(1 0 0 1 2609.06 1852)">: </text><text fill="#FFFFFF" font-family="Calibri,Calibri_MSFontService,sans-serif" font-weight="400" font-size="73" transform="matrix(1 0 0 1 2650.88 1852)">la mise </text><text fill="#FFFFFF" font-family="Calibri,Calibri_MSFontService,sans-serif" font-weight="400" font-size="73" transform="matrix(1 0 0 1 1859.11 1941)">en scène, les images, le partage du </text><text fill="#FFFFFF" font-family="Calibri,Calibri_MSFontService,sans-serif" font-weight="400" font-size="73" transform="matrix(1 0 0 1 1859.11 2029)">projet qui vous anime...</text></g></svg>