<svg width="3098" height="311" xmlns="http://www.w3.org/2000/svg" xmlns:xlink="http://www.w3.org/1999/xlink" xml:space="preserve" overflow="hidden"><defs><linearGradient x1="1576.16" y1="-151.667" x2="1516.84" y2="451.667" gradientUnits="userSpaceOnUse" spreadMethod="reflect" id="stroke0"><stop offset="0" stop-color="#E3924B" stop-opacity="1"/><stop offset="0.08" stop-color="#E3924B" stop-opacity="1"/><stop offset="0.46" stop-color="#F0C099" stop-opacity="0"/><stop offset="0.62" stop-color="#FBE5D6" stop-opacity="1"/><stop offset="1" stop-color="#E3924B" stop-opacity="1"/></linearGradient><linearGradient x1="1546.5" y1="0" x2="1546.5" y2="300" gradientUnits="userSpaceOnUse" spreadMethod="reflect" id="fill1"><stop offset="0" stop-color="#1A122A" stop-opacity="0.360784"/><stop offset="0.00617284" stop-color="#1A122A" stop-opacity="0.36473"/><stop offset="0.0123457" stop-color="#1A122A" stop-opacity="0.368676"/><stop offset="0.0185185" stop-color="#1A122A" stop-opacity="0.372622"/><stop offset="0.0246914" stop-color="#1A122A" stop-opacity="0.376567"/><stop offset="0.0308642" stop-color="#1A122A" stop-opacity="0.380513"/><stop offset="0.037037" stop-color="#1A122A" stop-opacity="0.384459"/><stop offset="0.0432099" stop-color="#1A122A" stop-opacity="0.388405"/><stop offset="0.0493827" stop-color="#1A122A" stop-opacity="0.392351"/><stop offset="0.0555556" stop-color="#1A122A" stop-opacity="0.396296"/><stop offset="0.0617284" stop-color="#1A122A" stop-opacity="0.400242"/><stop offset="0.0679012" stop-color="#1A122A" stop-opacity="0.404188"/><stop offset="0.0740741" stop-color="#1A122A" stop-opacity="0.408134"/><stop offset="0.0802469" stop-color="#1A122A" stop-opacity="0.412079"/><stop offset="0.0864198" stop-color="#1A122A" stop-opacity="0.416025"/><stop offset="0.0925926" stop-color="#1A122A" stop-opacity="0.419971"/><stop offset="0.0987654" stop-color="#1A122A" stop-opacity="0.423917"/><stop offset="0.104938" stop-color="#1A122A" stop-opacity="0.427862"/><stop offset="0.111111" stop-color="#1A122A" stop-opacity="0.431808"/><stop offset="0.117284" stop-color="#1A122A" stop-opacity="0.435754"/><stop offset="0.123457" stop-color="#1A122A" stop-opacity="0.4397"/><stop offset="0.12963" stop-color="#1A122A" stop-opacity="0.443646"/><stop offset="0.135802" stop-color="#1A122A" stop-opacity="0.447591"/><stop offset="0.141975" stop-color="#1A122A" stop-opacity="0.451537"/><stop offset="0.148148" stop-color="#1A122A" stop-opacity="0.455483"/><stop offset="0.154321" stop-color="#1A122A" stop-opacity="0.459429"/><stop offset="0.160494" stop-color="#1A122A" stop-opacity="0.463374"/><stop offset="0.166667" stop-color="#1A122A" stop-opacity="0.46732"/><stop offset="0.17284" stop-color="#1A122A" stop-opacity="0.471266"/><stop offset="0.179012" stop-color="#1A122A" stop-opacity="0.475212"/><stop offset="0.185185" stop-color="#1A122A" stop-opacity="0.479158"/><stop offset="0.191358" stop-color="#1A122A" stop-opacity="0.483103"/><stop offset="0.197531" stop-color="#1A122A" stop-opacity="0.487049"/><stop offset="0.203704" stop-color="#1A122A" stop-opacity="0.490995"/><stop offset="0.209877" stop-color="#1A122A" stop-opacity="0.494941"/><stop offset="0.216049" stop-color="#1A122A" stop-opacity="0.498886"/><stop offset="0.222222" stop-color="#1A122A" stop-opacity="0.502832"/><stop offset="0.228395" stop-color="#1A122A" stop-opacity="0.506778"/><stop offset="0.234568" stop-color="#1A122A" stop-opacity="0.510724"/><stop offset="0.240741" stop-color="#1A122A" stop-opacity="0.51467"/><stop offset="0.246914" stop-color="#1A122A" stop-opacity="0.518615"/><stop offset="0.253086" stop-color="#1A122A" stop-opacity="0.522561"/><stop offset="0.259259" stop-color="#1A122A" stop-opacity="0.526507"/><stop offset="0.265432" stop-color="#1A122A" stop-opacity="0.530453"/><stop offset="0.271605" stop-color="#1A122A" stop-opacity="0.534398"/><stop offset="0.277778" stop-color="#1A122A" stop-opacity="0.538344"/><stop offset="0.283951" stop-color="#1A122A" stop-opacity="0.54229"/><stop offset="0.290123" stop-color="#1A122A" stop-opacity="0.546236"/><stop offset="0.296296" stop-color="#1A122A" stop-opacity="0.550182"/><stop offset="0.302469" stop-color="#1A122A" stop-opacity="0.554127"/><stop offset="0.308642" stop-color="#1A122A" stop-opacity="0.558073"/><stop offset="0.314815" stop-color="#1A122A" stop-opacity="0.562019"/><stop offset="0.320988" stop-color="#1A122A" stop-opacity="0.565965"/><stop offset="0.327161" stop-color="#1A122A" stop-opacity="0.56991"/><stop offset="0.333333" stop-color="#1A122A" stop-opacity="0.573856"/><stop offset="0.339506" stop-color="#1A122A" stop-opacity="0.577802"/><stop offset="0.345679" stop-color="#1A122A" stop-opacity="0.581748"/><stop offset="0.351852" stop-color="#1A122A" stop-opacity="0.585694"/><stop offset="0.358025" stop-color="#1A122A" stop-opacity="0.589639"/><stop offset="0.364198" stop-color="#1A122A" stop-opacity="0.593585"/><stop offset="0.37037" stop-color="#1A122A" stop-opacity="0.597531"/><stop offset="0.376543" stop-color="#1A122A" stop-opacity="0.601477"/><stop offset="0.382716" stop-color="#1A122A" stop-opacity="0.605422"/><stop offset="0.388889" stop-color="#1A122A" stop-opacity="0.609368"/><stop offset="0.395062" stop-color="#1A122A" stop-opacity="0.613314"/><stop offset="0.401235" stop-color="#1A122A" stop-opacity="0.61726"/><stop offset="0.407407" stop-color="#1A122A" stop-opacity="0.621206"/><stop offset="0.41358" stop-color="#1A122A" stop-opacity="0.625151"/><stop offset="0.419753" stop-color="#1A122A" stop-opacity="0.629097"/><stop offset="0.425926" stop-color="#1A122A" stop-opacity="0.633043"/><stop offset="0.432099" stop-color="#1A122A" stop-opacity="0.636989"/><stop offset="0.438272" stop-color="#1A122A" stop-opacity="0.640934"/><stop offset="0.444444" stop-color="#1A122A" stop-opacity="0.64488"/><stop offset="0.450617" stop-color="#1A122A" stop-opacity="0.648826"/><stop offset="0.45679" stop-color="#1A122A" stop-opacity="0.652772"/><stop offset="0.462963" stop-color="#1A122A" stop-opacity="0.656717"/><stop offset="0.469136" stop-color="#1A122A" stop-opacity="0.660663"/><stop offset="0.475309" stop-color="#1A122A" stop-opacity="0.664609"/><stop offset="0.481481" stop-color="#1A122A" stop-opacity="0.668555"/><stop offset="0.487654" stop-color="#1A122A" stop-opacity="0.672501"/><stop offset="0.493827" stop-color="#1A122A" stop-opacity="0.676446"/><stop offset="0.5" stop-color="#1A122A" stop-opacity="0.680392"/><stop offset="0.506173" stop-color="#1A122A" stop-opacity="0.684338"/><stop offset="0.512346" stop-color="#1A122A" stop-opacity="0.688284"/><stop offset="0.518519" stop-color="#1A122A" stop-opacity="0.69223"/><stop offset="0.524691" stop-color="#1A122A" stop-opacity="0.696175"/><stop offset="0.530864" stop-color="#1A122A" stop-opacity="0.700121"/><stop offset="0.537037" stop-color="#1A122A" stop-opacity="0.704067"/><stop offset="0.54321" stop-color="#1A122A" stop-opacity="0.708013"/><stop offset="0.549383" stop-color="#1A122A" stop-opacity="0.711958"/><stop offset="0.555556" stop-color="#1A122A" stop-opacity="0.715904"/><stop offset="0.561728" stop-color="#1A122A" stop-opacity="0.71985"/><stop offset="0.567901" stop-color="#1A122A" stop-opacity="0.723796"/><stop offset="0.574074" stop-color="#1A122A" stop-opacity="0.727741"/><stop offset="0.580247" stop-color="#1A122A" stop-opacity="0.731687"/><stop offset="0.58642" stop-color="#1A122A" stop-opacity="0.735633"/><stop offset="0.592593" stop-color="#1A122A" stop-opacity="0.739579"/><stop offset="0.598765" stop-color="#1A122A" stop-opacity="0.743525"/><stop offset="0.604938" stop-color="#1A122A" stop-opacity="0.74747"/><stop offset="0.611111" stop-color="#1A122A" stop-opacity="0.751416"/><stop offset="0.617284" stop-color="#1A122A" stop-opacity="0.755362"/><stop offset="0.623457" stop-color="#1A122A" stop-opacity="0.759308"/><stop offset="0.62963" stop-color="#1A122A" stop-opacity="0.763253"/><stop offset="0.635802" stop-color="#1A122A" stop-opacity="0.767199"/><stop offset="0.641975" stop-color="#1A122A" stop-opacity="0.771145"/><stop offset="0.648148" stop-color="#1A122A" stop-opacity="0.775091"/><stop offset="0.654321" stop-color="#1A122A" stop-opacity="0.779037"/><stop offset="0.660494" stop-color="#1A122A" stop-opacity="0.782982"/><stop offset="0.666667" stop-color="#1A122A" stop-opacity="0.786928"/><stop offset="0.67284" stop-color="#1A122A" stop-opacity="0.790874"/><stop offset="0.679012" stop-color="#1A122A" stop-opacity="0.79482"/><stop offset="0.685185" stop-color="#1A122A" stop-opacity="0.798765"/><stop offset="0.691358" stop-color="#1A122A" stop-opacity="0.802711"/><stop offset="0.697531" stop-color="#1A122A" stop-opacity="0.806657"/><stop offset="0.703704" stop-color="#1A122A" stop-opacity="0.810603"/><stop offset="0.709877" stop-color="#1A122A" stop-opacity="0.814549"/><stop offset="0.716049" stop-color="#1A122A" stop-opacity="0.818494"/><stop offset="0.722222" stop-color="#1A122A" stop-opacity="0.82244"/><stop offset="0.728395" stop-color="#1A122A" stop-opacity="0.826386"/><stop offset="0.734568" stop-color="#1A122A" stop-opacity="0.830332"/><stop offset="0.740741" stop-color="#1A122A" stop-opacity="0.834277"/><stop offset="0.746914" stop-color="#1A122A" stop-opacity="0.838223"/><stop offset="0.753086" stop-color="#1A122A" stop-opacity="0.842169"/><stop offset="0.759259" stop-color="#1A122A" stop-opacity="0.846115"/><stop offset="0.765432" stop-color="#1A122A" stop-opacity="0.850061"/><stop offset="0.771605" stop-color="#1A122A" stop-opacity="0.854006"/><stop offset="0.777778" stop-color="#1A122A" stop-opacity="0.857952"/><stop offset="0.783951" stop-color="#1A122A" stop-opacity="0.861898"/><stop offset="0.790123" stop-color="#1A122A" stop-opacity="0.865844"/><stop offset="0.796296" stop-color="#1A122A" stop-opacity="0.869789"/><stop offset="0.802469" stop-color="#1A122A" stop-opacity="0.873735"/><stop offset="0.808642" stop-color="#1A122A" stop-opacity="0.877681"/><stop offset="0.814815" stop-color="#1A122A" stop-opacity="0.881627"/><stop offset="0.820988" stop-color="#1A122A" stop-opacity="0.885572"/><stop offset="0.82716" stop-color="#1A122A" stop-opacity="0.889518"/><stop offset="0.833333" stop-color="#1A122A" stop-opacity="0.893464"/><stop offset="0.839506" stop-color="#1A122A" stop-opacity="0.89741"/><stop offset="0.845679" stop-color="#1A122A" stop-opacity="0.901356"/><stop offset="0.851852" stop-color="#1A122A" stop-opacity="0.905301"/><stop offset="0.858025" stop-color="#1A122A" stop-opacity="0.909247"/><stop offset="0.864198" stop-color="#1A122A" stop-opacity="0.913193"/><stop offset="0.87037" stop-color="#1A122A" stop-opacity="0.917139"/><stop offset="0.876543" stop-color="#1A122A" stop-opacity="0.921084"/><stop offset="0.882716" stop-color="#1A122A" stop-opacity="0.92503"/><stop offset="0.888889" stop-color="#1A122A" stop-opacity="0.928976"/><stop offset="0.895062" stop-color="#1A122A" stop-opacity="0.932922"/><stop offset="0.901235" stop-color="#1A122A" stop-opacity="0.936868"/><stop offset="0.907407" stop-color="#1A122A" stop-opacity="0.940813"/><stop offset="0.91358" stop-color="#1A122A" stop-opacity="0.944759"/><stop offset="0.919753" stop-color="#1A122A" stop-opacity="0.948705"/><stop offset="0.925926" stop-color="#1A122A" stop-opacity="0.952651"/><stop offset="0.932099" stop-color="#1A122A" stop-opacity="0.956596"/><stop offset="0.938272" stop-color="#1A122A" stop-opacity="0.960542"/><stop offset="0.944444" stop-color="#1A122A" stop-opacity="0.964488"/><stop offset="0.950617" stop-color="#1A122A" stop-opacity="0.968434"/><stop offset="0.95679" stop-color="#1A122A" stop-opacity="0.97238"/><stop offset="0.962963" stop-color="#1A122A" stop-opacity="0.976325"/><stop offset="0.969136" stop-color="#1A122A" stop-opacity="0.980271"/><stop offset="0.975309" stop-color="#1A122A" stop-opacity="0.984217"/><stop offset="0.981481" stop-color="#1A122A" stop-opacity="0.988163"/><stop offset="0.987654" stop-color="#1A122A" stop-opacity="0.992108"/><stop offset="0.993827" stop-color="#1A122A" stop-opacity="0.996054"/><stop offset="1" stop-color="#1A122A" stop-opacity="1"/></linearGradient></defs><g transform="matrix(1 0 0 1 0 -110)"><g><path d="M0 0 3054.67 0 3093 38.3347 3093 300 0 300Z" stroke="url(#stroke0)" stroke-width="4.58333" stroke-linecap="butt" stroke-linejoin="miter" stroke-miterlimit="8" fill="url(#fill1)" fill-rule="evenodd" transform="matrix(1 0 0 -1 2.4999 416.5)"/><path d="M95.5995 0 0 86.3502 0 99 96 99 95.5995 0Z" fill="#3E2A4B" fill-rule="evenodd" fill-opacity="1" transform="matrix(1 0 0 -1 35.0001 243)"/><path d="M0 11.0001 6.00142 5.49932 12.0001 0 18.0001 5.49932 24.0001 11.0001 12.0001 11.0001 0 11.0001Z" fill="#2C2A2C" fill-rule="evenodd" fill-opacity="1" transform="matrix(1 0 0 -1 229 177)"/><path d="M0 85.9999 96 0 0 0 0 85.9999Z" fill="#757575" fill-rule="evenodd" fill-opacity="1" transform="matrix(1 0 0 -1 35.0001 243)"/><path d="M95.506 0.00278015 205 99 93.4614 99 0 2.08692 0 0.00278015 0.973989 0.00278015 95.5639 98.1261 95.5571 89.5787 9.32889 0.00278015 12.3075 0.00278015 95.5571 86.5269 95.553 77.981 20.6444 0.00278015 23.6147 0.00278015 95.5515 74.9292 95.546 66.3859 31.3199 0.00278015 34.2942 0.00278015 95.546 63.3328 95.5406 54.7854 42.6174 0.00278015 45.5849 0.00278015 95.5391 51.7351 95.5336 43.1863 53.8874 0.00278015 56.8453 0.00278015 95.5323 40.1346 95.5267 31.5872 65.1229 0.00135251 68.0753 0.00135251 95.5267 28.534 95.5226 19.9866 76.324 0 79.2625 0 95.5198 16.9335 95.5157 8.3875 87.4767 0 90.4029 0 95.5129 5.33436 95.5102 0ZM85.2128 99 82.2632 99 0 13.8473 0 10.7542 85.2128 99ZM73.9855 99 71.0263 99 0 25.5898 0 22.5035 73.9855 99Z" fill="#E3924B" fill-rule="evenodd" fill-opacity="1" transform="matrix(1 0 0 -1 35.0001 243)"/><path d="M0 0 38.9998 36.0002 0.0192291 36.0002 0 0Z" fill="#3E2A4B" fill-rule="evenodd" fill-opacity="1" transform="matrix(1 0 0 -1 201 180)"/><path d="M96 0 0 86.4568 0 146 95.9167 146 96 0Z" fill="#FFFFFF" fill-rule="evenodd" fill-opacity="1" transform="matrix(1 0 0 -1 35.0001 389)"/><path d="M0 13.0001 6.99968 6.50003 14.0008 0 21.0006 6.50003 28.0003 13.0001 14.0008 13.0001 0 13.0001Z" fill="#3E2A4B" fill-rule="evenodd" fill-opacity="1" transform="matrix(1 0 0 -1 116 335)"/><path d="M0 17.9999 20.4222 0 39.0002 17.9999 0 17.9999Z" fill="#3E2A4B" fill-rule="evenodd" fill-opacity="1" transform="matrix(1 0 0 -1 82.9998 364)"/><path d="M0 21 23.1775 0 41.9999 21 0 21Z" fill="#3E2A4B" fill-rule="evenodd" fill-opacity="1" transform="matrix(1 0 0 -1 52.9999 340)"/><path d="M0 25.4842 28.1908 0 74 51.0003 0 51.0003 0 25.4842Z" fill="#3E2A4B" fill-rule="evenodd" fill-opacity="1" transform="matrix(1 0 0 -1 35.0001 312)"/><path d="M23.0027 11.797 0 36.0002 1.10424 36.0002 23.5376 12.3837 25.0402 14.0287 4.1936 36.0002 5.29641 36.0002 25.5764 14.6168 27.0722 16.2576 8.37616 35.9987 9.47626 35.9987 27.6084 16.8443 29.1029 18.4824 12.549 35.9987 13.645 35.9987 29.635 19.069 31.1156 20.6918 16.5455 36.0002 17.6428 36.0002 31.6504 21.2784 33 22.7569 32.9862 0 23.0027 11.7985ZM30.1092 36.0002 29.0215 36.0002 32.9793 31.8195 32.9793 32.9662 30.1078 35.9987ZM25.968 36.0002 24.8762 36.0002 32.9793 27.4596 32.9793 28.6064 25.968 36.0002ZM21.8116 36.0002 20.7157 36.0002 32.9793 23.097 32.9793 24.2451 21.8116 36.0002Z" fill="#2C2A2C" fill-rule="evenodd" fill-opacity="1" transform="matrix(1 0 0 -1 168 180)"/><path d="M0.32786 0 68.0001 66.9958 68.0001 130 4.8941 130 31.4184 103.52 0 72.4196 0.288769 72.4196 0.290214 69.6476 32.9544 101.987 36.4632 98.4806 37.2584 97.6892 0.292952 61.0941 0.295766 58.0404 38.7958 96.1534 43.0998 91.8579 0.29858 49.4868 0.299949 46.4318 44.6358 90.3222 48.9398 86.0254 0.306946 37.8782 0.308315 34.8245 50.4772 84.4909 54.7812 80.1927 0.313943 26.271 0.315312 23.2172 56.3187 78.6596 60.6226 74.3615 0.322308 14.6637 0.322308 11.6086 62.1601 72.827 66.464 68.5288 0.326491 3.05648 0.32786 0Z" fill="#FFFFFF" fill-rule="evenodd" fill-opacity="1" transform="matrix(1 0 0 -1 130 316)"/><path d="M0 63.9999 0 0 72.9999 63.9999 0 63.9999Z" fill="#E3924B" fill-rule="evenodd" fill-opacity="1" transform="matrix(1 0 0 -1 198 249)"/><path d="M0 26.9999 13.2507 13.4985 26.5 0 39.7479 13.4985 53 26.9999 26.5 26.9999 0 26.9999Z" fill="#A79194" fill-rule="evenodd" fill-opacity="1" transform="matrix(1 0 0 -1 218 240)"/><path d="M0 27.0002 13.2507 13.5001 26.5 0 39.7479 13.5001 53 27.0002 26.5 27.0002 0 27.0002Z" fill="#A79194" fill-rule="evenodd" fill-opacity="1" transform="matrix(1 0 0 -1 218 289)"/></g></g></svg>